<?xml version="1.0" standalone="no"?>
<!DOCTYPE svg PUBLIC "-//W3C//DTD SVG 20010904//EN"
 "http://www.w3.org/TR/2001/REC-SVG-20010904/DTD/svg10.dtd">
<svg version="1.0" xmlns="http://www.w3.org/2000/svg"
 width="700.000000pt" height="700.000000pt" viewBox="0 0 700.000000 700.000000"
 preserveAspectRatio="xMidYMid meet">
<metadata>
Created by potrace 1.11, written by Peter Selinger 2001-2013
</metadata>
<g transform="translate(0.000000,700.000000) scale(0.100000,-0.100000)"
fill="#000000" stroke="none">
<path d="M0 3500 l0 -3500 3500 0 3500 0 0 3500 0 3500 -3500 0 -3500 0 0
-3500z m5383 2242 c81 -22 180 -69 181 -87 1 -5 -33 -21 -74 -35 -126 -43
-197 -87 -295 -185 -100 -99 -143 -160 -222 -310 -92 -176 -167 -416 -225
-714 -29 -150 -30 -170 -38 -551 -8 -388 -16 -503 -46 -644 -28 -134 -95 -380
-145 -534 -28 -84 -49 -155 -47 -157 1 -1 46 33 98 77 52 44 165 127 251 184
167 111 249 187 357 333 60 81 146 221 176 289 10 23 22 42 26 42 19 0 33
-127 27 -258 -11 -285 -82 -547 -224 -827 -224 -443 -405 -700 -733 -1039
-277 -286 -520 -448 -819 -546 -158 -52 -262 -70 -449 -78 -238 -11 -418 13
-632 83 -541 176 -968 571 -1150 1065 -113 306 -157 602 -147 985 14 536 80
800 287 1160 230 401 506 712 795 897 149 95 525 298 525 282 0 -3 -11 -20
-24 -37 -34 -46 -59 -100 -96 -207 l-33 -95 -2 -220 c-1 -121 -5 -238 -10
-260 -4 -22 -5 -38 -2 -35 3 3 35 77 71 165 78 189 206 418 288 515 55 65 201
194 348 305 140 107 442 242 719 321 360 104 639 144 961 140 192 -3 237 -6
303 -24z"/>
<path d="M2149 4158 c-124 -115 -245 -423 -305 -778 -13 -75 -18 -160 -18
-295 l-1 -190 38 -124 c21 -68 49 -146 64 -175 33 -66 158 -221 237 -292 33
-31 54 -54 46 -51 -8 3 -42 17 -75 30 -33 13 -92 36 -130 50 -75 29 -150 84
-199 147 -16 22 -31 38 -32 37 -7 -6 18 -292 32 -372 37 -219 155 -451 342
-675 135 -162 273 -255 538 -361 209 -83 424 -129 607 -129 291 0 605 134 835
354 355 341 464 797 295 1231 -63 162 -148 328 -230 450 -101 150 -249 323
-339 397 -85 68 -244 161 -324 188 -56 19 -110 26 -110 15 0 -3 23 -33 51 -67
105 -130 156 -238 178 -378 7 -41 24 -117 38 -168 14 -51 24 -94 22 -96 -2 -2
-49 32 -104 76 -210 168 -308 223 -580 328 -201 78 -257 103 -345 158 -241
149 -398 309 -461 470 -18 45 -23 77 -23 155 0 53 -3 97 -6 97 -3 0 -22 -15
-41 -32z"/>
</g>
</svg>
